<svg width="90" height="84" viewBox="0 0 90 84" fill="none" xmlns="http://www.w3.org/2000/svg">
<path d="M82.4999 0.75H7.50006C3.36375 0.75 0 4.11375 0 8.25006V75.7501C0 79.8864 3.36375 83.2501 7.50006 83.2501H82.5001C86.6363 83.2501 90 79.8864 90 75.7501V8.25006C90 4.11375 86.6363 0.75 82.4999 0.75ZM86.2501 75.7501C86.2501 77.8181 84.5682 79.5 82.5001 79.5H7.50006C5.43199 79.5 3.75012 77.8181 3.75012 75.7501V8.25006C3.75012 6.18199 5.43199 4.50012 7.50006 4.50012H82.5001C84.5682 4.50012 86.2501 6.18199 86.2501 8.25006V75.7501Z" fill="#7E7B7B"/>
<path d="M13.1251 8.25H11.25C10.215 8.25 9.37494 9.08813 9.37494 10.1251C9.37494 11.162 10.215 12.0001 11.25 12.0001H13.1251C14.1601 12.0001 15.0001 11.162 15.0001 10.1251C14.9999 9.08813 14.1601 8.25 13.1251 8.25ZM22.5 8.25H20.6249C19.5899 8.25 18.7499 9.08813 18.7499 10.1251C18.7499 11.162 19.5899 12.0001 20.6249 12.0001H22.5C23.535 12.0001 24.3751 11.162 24.3751 10.1251C24.3751 9.08813 23.535 8.25 22.5 8.25ZM78.75 8.25H76.8749C76.6286 8.24977 76.3847 8.29811 76.1571 8.39226C75.9295 8.48641 75.7227 8.62452 75.5486 8.79868C75.3744 8.97284 75.2363 9.17963 75.1422 9.40723C75.048 9.63483 74.9996 9.87876 74.9999 10.1251C74.9996 10.3714 75.048 10.6153 75.1422 10.8429C75.2363 11.0705 75.3744 11.2773 75.5486 11.4514C75.7227 11.6256 75.9295 11.7637 76.1571 11.8579C76.3847 11.952 76.6286 12.0003 76.8749 12.0001H78.75C78.9963 12.0003 79.2402 11.952 79.4678 11.8579C79.6954 11.7637 79.9022 11.6256 80.0764 11.4514C80.2505 11.2773 80.3887 11.0705 80.4828 10.8429C80.577 10.6153 80.6253 10.3714 80.6251 10.1251C80.6253 9.87876 80.577 9.63483 80.4828 9.40723C80.3887 9.17963 80.2505 8.97284 80.0764 8.79868C79.9022 8.62452 79.6954 8.48641 79.4678 8.39226C79.2402 8.29811 78.9963 8.24977 78.75 8.25ZM80.6251 15.7501H9.37494C8.33994 15.7501 7.49988 16.5882 7.49988 17.6251C7.49988 18.6621 8.33994 19.5002 9.37494 19.5002H80.6249C80.8712 19.5004 81.1151 19.4521 81.3427 19.3579C81.5703 19.2638 81.7771 19.1257 81.9513 18.9515C82.1254 18.7773 82.2635 18.5705 82.3577 18.3429C82.4518 18.1153 82.5002 17.8714 82.4999 17.6251C82.5002 17.3788 82.4518 17.1349 82.3577 16.9073C82.2636 16.6797 82.1255 16.473 81.9513 16.2988C81.7772 16.1246 81.5704 15.9865 81.3428 15.8924C81.1153 15.7982 80.8713 15.7499 80.6251 15.7501ZM61.875 36.375C61.6287 36.3748 61.3848 36.4231 61.1572 36.5173C60.9296 36.6114 60.7228 36.7495 60.5486 36.9237C60.3745 37.0978 60.2364 37.3046 60.1422 37.5322C60.0481 37.7598 59.9997 38.0038 59.9999 38.2501V57.0001C59.9999 58.0371 60.8381 58.8752 61.875 58.8752C62.9119 58.8752 63.7501 58.0371 63.7501 57.0001V38.2501C63.7503 38.0038 63.702 37.7598 63.6078 37.5322C63.5137 37.3046 63.3755 37.0978 63.2014 36.9237C63.0272 36.7495 62.8204 36.6114 62.5928 36.5173C62.3652 36.4231 62.1213 36.3748 61.875 36.375ZM48.7499 36.375H43.1249C42.0899 36.375 41.2499 37.2131 41.2499 38.2501V57.0001C41.2499 58.0371 42.0899 58.8752 43.1249 58.8752C44.1599 58.8752 45 58.0369 45 56.9999V51.3749H48.7499C52.8768 51.3749 54.3749 48.0112 54.3749 45.7499V42C54.3749 37.8732 51.0112 36.375 48.7499 36.375ZM50.625 45.7274C50.6025 46.5937 50.2613 47.625 48.7499 47.625H45V40.1249H48.7274C49.5937 40.1474 50.625 40.4888 50.625 42V45.7274Z" fill="#7E7B7B"/>
<path d="M65.6249 36.375H58.1249C57.8786 36.3748 57.6347 36.4231 57.4071 36.5173C57.1795 36.6114 56.9727 36.7495 56.7985 36.9237C56.6243 37.0978 56.4862 37.3046 56.3921 37.5322C56.2979 37.7598 56.2496 38.0038 56.2498 38.2501C56.2496 38.4964 56.2979 38.7403 56.3921 38.9679C56.4862 39.1955 56.6243 39.4023 56.7985 39.5764C56.9727 39.7506 57.1795 39.8887 57.4071 39.9829C57.6347 40.077 57.8786 40.1253 58.1249 40.1251H65.6249C65.8712 40.1253 66.1152 40.077 66.3428 39.9829C66.5704 39.8887 66.7772 39.7506 66.9513 39.5764C67.1255 39.4023 67.2636 39.1955 67.3577 38.9679C67.4519 38.7403 67.5002 38.4964 67.5 38.2501C67.5002 38.0038 67.4519 37.7598 67.3577 37.5322C67.2636 37.3046 67.1255 37.0978 66.9513 36.9237C66.7772 36.7495 66.5704 36.6114 66.3428 36.5173C66.1152 36.4231 65.8712 36.3748 65.6249 36.375ZM65.6249 55.1251H58.1249C57.8786 55.1248 57.6347 55.1732 57.4071 55.2673C57.1795 55.3615 56.9727 55.4996 56.7985 55.6737C56.6243 55.8479 56.4862 56.0547 56.3921 56.2823C56.2979 56.5099 56.2496 56.7538 56.2498 57.0001C56.2496 57.2464 56.2979 57.4903 56.3921 57.7179C56.4862 57.9455 56.6243 58.1523 56.7985 58.3265C56.9727 58.5007 57.1795 58.6388 57.4071 58.7329C57.6347 58.8271 57.8786 58.8754 58.1249 58.8752H65.6249C65.8712 58.8754 66.1152 58.8271 66.3428 58.7329C66.5704 58.6388 66.7772 58.5007 66.9513 58.3265C67.1255 58.1523 67.2636 57.9455 67.3577 57.7179C67.4519 57.4903 67.5002 57.2464 67.5 57.0001C67.5002 56.7538 67.4519 56.5099 67.3577 56.2823C67.2636 56.0547 67.1255 55.8479 66.9513 55.6737C66.7772 55.4996 66.5704 55.3615 66.3428 55.2673C66.1152 55.1732 65.8712 55.1248 65.6249 55.1251ZM30.0001 36.375C25.8638 36.375 22.5 39.7387 22.5 43.8751V57.0001C22.5 58.0371 23.3401 58.8752 24.3751 58.8752C25.4101 58.8752 26.2501 58.0371 26.2501 57.0001V43.8751C26.2501 41.807 27.932 40.1251 30.0001 40.1251C32.0681 40.1251 33.75 41.807 33.75 43.8751V57.0001C33.75 58.0371 34.5901 58.8752 35.6251 58.8752C36.6601 58.8752 37.5001 58.0371 37.5001 57.0001V43.8751C37.4999 39.7387 34.1362 36.375 30.0001 36.375Z" fill="#7E7B7B"/>
<path d="M35.6251 47.625H24.3751C23.3401 47.625 22.5 48.4631 22.5 49.5001C22.5 50.537 23.3401 51.3751 24.3751 51.3751H35.6251C36.6601 51.3751 37.5001 50.537 37.5001 49.5001C37.4999 48.4631 36.6601 47.625 35.6251 47.625Z" fill="#7E7B7B"/>
</svg>
