<svg width="127" height="89" viewBox="0 0 127 89" fill="none" xmlns="http://www.w3.org/2000/svg">
<path d="M126.592 30.9822L114.689 15.0822C114.686 15.0779 114.427 14.6173 113.627 14.3631L64.0567 0.365987C63.6926 0.263258 63.3072 0.263258 62.9431 0.365987L13.3725 14.3631C13.3725 14.3631 12.6958 14.5583 12.2891 15.1073C12.1262 15.3271 0.408401 30.9822 0.408401 30.9822C0.21472 31.2413 0.0851047 31.5425 0.030156 31.8613C-0.0247928 32.18 -0.00351495 32.5073 0.0922495 32.8162C0.188014 33.1252 0.355545 33.4071 0.581144 33.6389C0.806743 33.8707 1.084 34.0458 1.39025 34.1499L11.8807 37.7101V66.1789C11.8807 66.5844 12.001 66.9807 12.2265 67.3176C12.4519 67.6546 12.7723 67.9171 13.147 68.0718L62.7179 88.5557C62.8652 88.6167 63.052 88.7112 63.4999 88.7112C63.9478 88.7112 64.2819 88.5557 64.2819 88.5557L113.853 68.0718C114.228 67.917 114.548 67.6545 114.773 67.3176C114.999 66.9806 115.119 66.5843 115.119 66.1789V37.7096L125.61 34.1493C125.916 34.0453 126.193 33.8702 126.419 33.6384C126.645 33.4067 126.812 33.1248 126.908 32.8158C127.004 32.5069 127.025 32.1797 126.97 31.8611C126.915 31.5424 126.785 31.2413 126.592 30.9822ZM5.37974 31.1773L14.732 18.6805L18.5146 19.7224L39.8029 25.5864L59.9352 31.1327L48.1278 45.6854L5.37974 31.1773ZM61.4518 83.5993L15.9774 64.8088V39.1001L48.162 50.0243C48.5582 50.1589 48.9862 50.1688 49.3883 50.0527C49.7903 49.9365 50.1471 49.6999 50.4104 49.3746L61.4521 35.7662L61.4518 83.5993ZM63.4999 27.8662L21.5533 16.3104L63.4999 4.46554L105.446 16.3104L63.4999 27.8662ZM111.023 64.8088L65.548 83.5993V35.7667L76.5896 49.3752C76.8531 49.7003 77.21 49.9368 77.612 50.053C78.0141 50.1691 78.4421 50.1593 78.8384 50.0249L111.023 39.1006V64.8088ZM78.8722 45.686L67.0649 31.1332L112.268 18.6805L121.621 31.1773L78.8722 45.686Z" fill="#7E7B7B"/>
</svg>
