<svg width="90" height="83" viewBox="0 0 90 83" fill="none" xmlns="http://www.w3.org/2000/svg">
<path d="M82.4999 0.933472H7.50006C3.36375 0.933472 0 4.25248 0 8.33377V74.9359C0 79.0172 3.36375 82.3362 7.50006 82.3362H82.5001C86.6363 82.3362 90 79.0172 90 74.9359V8.33377C90 4.25248 86.6363 0.933472 82.4999 0.933472ZM86.2501 74.9359C86.2501 76.9765 84.5682 78.636 82.5001 78.636H7.50006C5.43199 78.636 3.75012 76.9765 3.75012 74.9359V8.33377C3.75012 6.29321 5.43199 4.63371 7.50006 4.63371H82.5001C84.5682 4.63371 86.2501 6.29321 86.2501 8.33377V74.9359Z" fill="#7E7B7B"/>
<path d="M13.1251 8.33374H11.25C10.215 8.33374 9.37494 9.16072 9.37494 10.1839C9.37494 11.207 10.215 12.034 11.25 12.034H13.1251C14.1601 12.034 15.0001 11.207 15.0001 10.1839C14.9999 9.16072 14.1601 8.33374 13.1251 8.33374ZM22.5 8.33374H20.6249C19.5899 8.33374 18.7499 9.16072 18.7499 10.1839C18.7499 11.207 19.5899 12.034 20.6249 12.034H22.5C23.535 12.034 24.3751 11.207 24.3751 10.1839C24.3751 9.16072 23.535 8.33374 22.5 8.33374ZM78.75 8.33374H76.8749C76.6286 8.33351 76.3847 8.38121 76.1571 8.47411C75.9295 8.567 75.7227 8.70327 75.5486 8.87512C75.3744 9.04696 75.2363 9.25101 75.1422 9.47558C75.048 9.70015 74.9997 9.94083 74.9999 10.1839C74.9997 10.4269 75.048 10.6676 75.1422 10.8921C75.2363 11.1167 75.3744 11.3208 75.5486 11.4926C75.7227 11.6644 75.9295 11.8007 76.1571 11.8936C76.3847 11.9865 76.6286 12.0342 76.8749 12.034H78.75C78.9963 12.0342 79.2402 11.9865 79.4678 11.8936C79.6954 11.8007 79.9022 11.6644 80.0764 11.4926C80.2506 11.3208 80.3887 11.1167 80.4828 10.8921C80.577 10.6676 80.6253 10.4269 80.6251 10.1839C80.6253 9.94083 80.577 9.70015 80.4828 9.47558C80.3887 9.25101 80.2506 9.04696 80.0764 8.87512C79.9022 8.70327 79.6954 8.567 79.4678 8.47411C79.2402 8.38121 78.9963 8.33351 78.75 8.33374ZM80.6251 15.734H9.37494C8.33994 15.734 7.49988 16.561 7.49988 17.5842C7.49988 18.6073 8.33994 19.4343 9.37494 19.4343H80.6249C80.8712 19.4345 81.1151 19.3868 81.3427 19.2939C81.5703 19.201 81.7771 19.0647 81.9513 18.8929C82.1254 18.721 82.2635 18.517 82.3577 18.2924C82.4518 18.0679 82.5002 17.8272 82.4999 17.5842C82.5002 17.3411 82.4518 17.1005 82.3577 16.8759C82.2636 16.6514 82.1255 16.4473 81.9513 16.2755C81.7772 16.1036 81.5704 15.9674 81.3428 15.8745C81.1153 15.7815 80.8713 15.7338 80.6251 15.734Z" fill="#7E7B7B"/>
<path d="M11.634 44.5949H22.366C22.7992 44.5945 23.2144 44.4244 23.5207 44.1219C23.827 43.8194 23.9994 43.4093 24 42.9815V39.3976C24 39.1039 23.8819 38.8221 23.6716 38.6144C23.4613 38.4067 23.1761 38.29 22.8787 38.29C22.5813 38.29 22.2961 38.4067 22.0858 38.6144C21.8755 38.8221 21.7573 39.1039 21.7573 39.3976V42.3797H12.2427V32.9964H16.9999C17.2973 32.9964 17.5825 32.8797 17.7928 32.6719C18.0031 32.4642 18.1212 32.1825 18.1212 31.8887C18.1212 31.595 18.0031 31.3133 17.7928 31.1055C17.5825 30.8978 17.2973 30.7811 16.9999 30.7811H11.634C11.2008 30.7815 10.7855 30.9516 10.4792 31.2541C10.1729 31.5566 10.0005 31.9667 10 32.3945V42.9815C10.0006 43.4093 10.173 43.8194 10.4793 44.1219C10.7856 44.4244 11.2008 44.5945 11.634 44.5949Z" fill="#7E7B7B"/>
<path d="M24.8387 30.0528C24.7262 29.959 24.5963 29.8883 24.4565 29.8448C24.3167 29.8012 24.1698 29.7857 24.024 29.7991C23.8782 29.8125 23.7365 29.8545 23.6069 29.9227C23.4773 29.991 23.3624 30.0841 23.2688 30.1968L17.9511 36.5981L16.2448 35.215C16.1312 35.1208 16.0001 35.05 15.859 35.0069C15.7179 34.9638 15.5697 34.9491 15.4229 34.9638C15.2761 34.9785 15.1337 35.0222 15.0039 35.0924C14.8741 35.1627 14.7595 35.258 14.6668 35.3729C14.574 35.4878 14.505 35.62 14.4636 35.7619C14.4223 35.9037 14.4094 36.0524 14.4258 36.1992C14.4422 36.3461 14.4876 36.4882 14.5592 36.6174C14.6309 36.7466 14.7274 36.8602 14.8432 36.9517L16.8943 38.6142C17.2314 38.8919 17.6591 39.0349 18.095 39.0156C18.531 38.9962 18.9445 38.816 19.2557 38.5096L19.3005 38.4666L24.9827 31.6259C25.0764 31.5131 25.147 31.383 25.1905 31.2429C25.2339 31.1028 25.2494 30.9555 25.2361 30.8094C25.2227 30.6634 25.1807 30.5213 25.1125 30.3915C25.0444 30.2617 24.9513 30.1466 24.8387 30.0528ZM78.8852 31.4578H35.387C35.0914 31.4578 34.8078 31.5755 34.5988 31.7849C34.3897 31.9943 34.2723 32.2784 34.2723 32.5745C34.2723 32.8707 34.3897 33.1548 34.5988 33.3642C34.8078 33.5736 35.0914 33.6913 35.387 33.6913H78.8852C79.1809 33.6913 79.4644 33.5736 79.6735 33.3642C79.8825 33.1548 80 32.8707 80 32.5745C80 32.2784 79.8825 31.9943 79.6735 31.7849C79.4644 31.5755 79.1809 31.4578 78.8852 31.4578ZM78.8852 40.7101H35.387C35.0914 40.7101 34.8078 40.8277 34.5988 41.0371C34.3897 41.2466 34.2723 41.5306 34.2723 41.8268C34.2723 42.123 34.3897 42.407 34.5988 42.6164C34.8078 42.8259 35.0914 42.9435 35.387 42.9435H78.8852C79.1809 42.9435 79.4644 42.8259 79.6735 42.6164C79.8825 42.407 80 42.123 80 41.8268C80 41.5306 79.8825 41.2466 79.6735 41.0371C79.4644 40.8277 79.1809 40.7101 78.8852 40.7101ZM22.803 61.9187C22.5074 61.9187 22.2238 62.0364 22.0148 62.2458C21.8057 62.4552 21.6883 62.7393 21.6883 63.0354V66.0424H12.2295V56.5815H16.9588C17.2544 56.5815 17.538 56.4639 17.747 56.2544C17.9561 56.045 18.0735 55.761 18.0735 55.4648C18.0735 55.1686 17.9561 54.8846 17.747 54.6751C17.538 54.4657 17.2544 54.3481 16.9588 54.3481H11.6244C11.1938 54.3485 10.781 54.52 10.4765 54.825C10.1719 55.1299 10.0006 55.5434 10 55.9748V66.6488C10.0005 67.0802 10.1719 67.4937 10.4764 67.7987C10.7809 68.1037 11.1938 68.2752 11.6244 68.2757H22.2934C22.724 68.2752 23.1369 68.1037 23.4414 67.7987C23.7459 67.4937 23.9172 67.0802 23.9178 66.6488V63.0354C23.9178 62.7393 23.8003 62.4552 23.5913 62.2458C23.3822 62.0364 23.0987 61.9187 22.803 61.9187Z" fill="#7E7B7B"/>
<path d="M35.1147 55.4486H78.613C78.9086 55.4486 79.1922 55.5663 79.4012 55.7757C79.6103 55.9851 79.7277 56.2692 79.7277 56.5653C79.7277 56.8615 79.6103 57.1456 79.4012 57.355C79.1922 57.5644 78.9086 57.6821 78.613 57.6821H35.1147C34.8191 57.6821 34.5356 57.5644 34.3265 57.355C34.1174 57.1456 34 56.8615 34 56.5653C34 56.2692 34.1174 55.9851 34.3265 55.7757C34.5356 55.5663 34.8191 55.4486 35.1147 55.4486Z" fill="#7E7B7B"/>
<path d="M35.1147 64.7009H78.613C78.9086 64.7009 79.1922 64.8185 79.4012 65.0279C79.6103 65.2374 79.7277 65.5214 79.7277 65.8176C79.7277 66.1138 79.6103 66.3978 79.4012 66.6072C79.1922 66.8167 78.9086 66.9343 78.613 66.9343H35.1147C34.8191 66.9343 34.5356 66.8167 34.3265 66.6072C34.1174 66.3978 34 66.1138 34 65.8176C34 65.5214 34.1174 65.2374 34.3265 65.0279C34.5356 64.8185 34.8191 64.7009 35.1147 64.7009Z" fill="#7E7B7B"/>
<path d="M25.3264 53.7272C25.2148 53.6357 25.0861 53.5667 24.9475 53.5243C24.809 53.4818 24.6633 53.4667 24.5188 53.4798C24.3743 53.4928 24.2338 53.5338 24.1054 53.6004C23.977 53.667 23.8631 53.7579 23.7703 53.8679L18.5002 60.112L16.809 58.7631C16.6964 58.6713 16.5664 58.6024 16.4267 58.5605C16.287 58.5185 16.1402 58.5043 15.9948 58.5187C15.8495 58.533 15.7084 58.5757 15.5799 58.6441C15.4514 58.7125 15.3379 58.8054 15.246 58.9174C15.1541 59.0293 15.0856 59.1581 15.0446 59.2964C15.0035 59.4346 14.9906 59.5795 15.0067 59.7226C15.0228 59.8658 15.0675 60.0043 15.1383 60.1303C15.2091 60.2563 15.3045 60.3672 15.419 60.4566L17.452 62.0783C17.7861 62.3492 18.21 62.4887 18.6421 62.4699C19.0742 62.4511 19.484 62.2753 19.7925 61.9765L19.8369 61.9344L25.4689 55.2613C25.5617 55.1514 25.6316 55.0245 25.6747 54.8879C25.7178 54.7512 25.7331 54.6076 25.7199 54.4651C25.7067 54.3227 25.6651 54.1842 25.5976 54.0576C25.5301 53.9309 25.4379 53.8187 25.3264 53.7272Z" fill="#7E7B7B"/>
</svg>
