<?xml version="1.0" encoding="UTF-8" standalone="no"?><!DOCTYPE svg PUBLIC "-//W3C//DTD SVG 1.1//EN" "http://www.w3.org/Graphics/SVG/1.1/DTD/svg11.dtd"><svg width="100%" height="100%" viewBox="0 0 2046 457" version="1.1" xmlns="http://www.w3.org/2000/svg" xmlns:xlink="http://www.w3.org/1999/xlink" xml:space="preserve" xmlns:serif="http://www.serif.com/" style="fill-rule:evenodd;clip-rule:evenodd;stroke-linejoin:round;stroke-miterlimit:2;"><rect x="0" y="0" width="2045.36" height="456.902" style="fill:none;"/><g><g><path d="M312.064,206.356c0,26.481 -35.448,73.624 -50.991,93.075c-3.726,4.635 -10.634,4.635 -14.361,-0c-15.542,-19.451 -50.991,-66.594 -50.991,-93.075c0,-32.115 26.056,-58.171 58.172,-58.171c32.115,-0 58.171,26.056 58.171,58.171Z" style="fill:#4eaf47;fill-rule:nonzero;"/></g><path d="M250.623,172.979c1.634,-0.588 3.42,-0.588 5.065,-0l22.563,8.061c2.985,1.07 4.982,3.902 4.982,7.086l0,28.533c0,3.173 -1.997,6.016 -4.994,7.086l-22.563,8.061c-1.633,0.588 -3.419,0.588 -5.064,0l-22.563,-8.061c-2.985,-1.07 -4.983,-3.902 -4.983,-7.086l0,-28.533c0,-3.173 1.998,-6.016 4.995,-7.086l22.562,-8.061Zm2.527,7.086l-20.412,7.286l20.412,7.286l20.412,-7.286l-20.412,-7.286Zm3.76,43.315l18.803,-6.71l-0,-22.092l-18.803,6.71l0,22.092Z" style="fill:#fff;fill-rule:nonzero;"/></g><g><g><path d="M363.259,278.374c-3.2,-0 -5.804,2.604 -5.804,5.8c0,3.2 2.604,5.804 5.804,5.804c3.2,-0 5.804,-2.604 5.804,-5.804c0,-3.196 -2.604,-5.8 -5.804,-5.8m0,36.296c-16.812,-0 -30.496,-13.68 -30.496,-30.496c0,-16.817 13.684,-30.492 30.496,-30.492c16.817,0 30.492,13.675 30.492,30.492c-0,16.816 -13.675,30.496 -30.492,30.496" style="fill:#0778bc;fill-rule:nonzero;"/><path d="M101.732,139.974c-4.392,0 -7.963,3.571 -7.963,7.963c0,4.387 3.571,7.958 7.963,7.958c4.387,0 7.958,-3.571 7.958,-7.958c0,-4.392 -3.571,-7.963 -7.958,-7.963m-0,40.613c-18.004,-0 -32.65,-14.65 -32.65,-32.65c-0,-18.004 14.646,-32.65 32.65,-32.65c18.004,-0 32.646,14.646 32.646,32.65c-0,18 -14.642,32.65 -32.646,32.65" style="fill:#4eaf47;fill-rule:nonzero;"/><path d="M255.016,362.647c-77.188,-0 -139.367,-65.504 -133.859,-143.842c4.65,-66.104 58.192,-119.637 124.296,-124.246c78.3,-5.454 143.763,56.717 143.763,133.896c-0,6.058 -0.421,12.158 -1.246,18.133c-0.588,4.455 -1.421,8.938 -2.475,13.271l-0.109,0.5c-0.62,2.659 -1.391,5.438 -2.37,8.488c-0.263,0.846 -0.559,1.746 -0.88,2.683l-23.345,-8.033c0.241,-0.704 0.462,-1.384 0.683,-2.088c0.575,-1.804 1.096,-3.55 1.537,-5.308l0,-0.038l0.367,-1.512c0.904,-3.646 1.621,-7.438 2.125,-11.267c0.679,-4.929 1.021,-9.896 1.021,-14.829c-0,-64.517 -56.05,-116.183 -122,-108.842c-50.233,5.592 -90.679,46.03 -96.308,96.259c-7.4,65.987 44.27,122.087 108.8,122.087c24.375,0 47.708,-8.004 66.77,-22.725c4.95,-3.821 12.034,-3.112 16.325,1.438c5.075,5.375 4.255,13.9 -1.612,18.4c-23.304,17.871 -51.763,27.575 -81.483,27.575" style="fill:#0778bc;fill-rule:nonzero;"/><path d="M268.991,413.575c-108.784,8.166 -199.917,-78.034 -199.917,-185.121c-0,-14.559 1.692,-29.013 5.025,-42.963c0.946,-4.083 2.125,-8.391 3.487,-12.708c0.825,-2.733 1.805,-5.592 2.863,-8.45l0.992,-2.579l23.012,8.95l-0.921,2.4c-0.821,2.208 -1.633,4.575 -2.354,6.962c-1.217,3.854 -2.225,7.529 -3.046,11.075c-2.904,12.167 -4.371,24.688 -4.371,37.313c0,92.562 78.542,167.137 172.488,160.562c79.292,-5.546 143.521,-69.783 149.054,-149.075c6.554,-93.933 -68.012,-172.462 -160.571,-172.462c-41.512,-0 -81.462,16.15 -111.304,44.662c-4.717,4.504 -12.058,4.7 -16.892,0.321c-5.254,-4.754 -5.529,-13.029 -0.416,-17.933c34.446,-33.025 80.621,-51.738 128.612,-51.738c107.088,0 193.292,91.138 185.125,199.921c-6.812,90.767 -80.096,164.05 -170.866,170.863" style="fill:#4eaf47;fill-rule:nonzero;"/></g><g transform="matrix(4.16667,0,0,4.16667,-692.764,-1124.59)"><text x="277.565px" y="341.785px" style="font-family:'Akrobat-Bold', 'Akrobat';font-weight:700;font-size:64px;fill:#0778bc;">open</text><text x="396.157px" y="341.785px" style="font-family:'Akrobat-Bold', 'Akrobat';font-weight:700;font-size:64px;fill:#4eaf47;">S<tspan x="425.661px " y="341.785px ">e</tspan>nseMap</text></g></g></svg>